# File created by Blade
# Date/Time:  Thu Jan 22 16:00:44 2015
# Frame Rate: 120.000 fps
#------------------------------------------------------
:FULLY-SPECIFIED
:DEGREES
563
root 4.005831 34.729607 -2.200745 58.616666 -1.268321 -1.394397
RightUpLeg -85.622762 -0.975170 -4.721132
RightLeg 38.522045 -0.000000 -0.000000
RightFoot -19.190927 -12.640407 19.511337
RightToeBase 11.970097 -0.000000 -0.000000
LeftUpLeg -89.097197 1.903514 6.389527
LeftLeg 42.266805 -0.000000 -0.000000
LeftFoot -15.750662 12.947782 -20.218122
LeftToeBase 6.334577 -0.000000 -0.000000
Spine 84.134496 -2.723709 -10.227011
RightShoulder -14.490904 -63.010595 -27.756733
RightArm -15.825045 -3.319103 84.075081
RightForeArm 8.308552 -0.000000 4.927606
RightHand -13.171661 0.000000 43.982939
RightHandThumb1 -24.326973 -0.000000 -32.862282
LeftShoulder -98.843574 64.914595 -59.093358
LeftArm 9.123864 2.084507 -81.817412
LeftForeArm 36.647768 -0.000000 -4.022816
LeftHand -14.571350 -0.000000 -52.620854
LeftHandThumb1 -26.253704 0.000000 33.147579
Head 6.149446 18.727926 -3.073924
564
root 4.011134 34.727303 -2.192365 58.603905 -1.241711 -1.365007
RightUpLeg -85.610597 -1.019398 -4.734368
RightLeg 38.553080 -0.000000 -0.000000
RightFoot -19.239108 -12.595884 19.566271
RightToeBase 11.990699 -0.000000 -0.000000
LeftUpLeg -89.095212 1.844478 6.418876
LeftLeg 42.295505 -0.000000 -0.000000
LeftFoot -15.758429 12.972260 -20.218025
LeftToeBase 6.314897 -0.000000 -0.000000
Spine 84.061968 -2.787262 -10.226346
RightShoulder -14.507222 -62.980978 -27.754455
RightArm -15.790647 -3.281058 84.129314
RightForeArm 8.277088 -0.000000 4.959517
RightHand -13.124701 -0.000000 43.979729
RightHandThumb1 -24.326973 -0.000000 -32.862282
LeftShoulder -98.566484 64.932872 -58.789853
LeftArm 9.089921 2.184906 -81.875268
LeftForeArm 36.577946 -0.000000 -4.018058
LeftHand -14.498867 0.000000 -52.758055
LeftHandThumb1 -26.253704 0.000000 33.147579
Head 6.208887 18.740570 -3.057165
565
root 4.015395 34.723540 -2.183270 58.587610 -1.227904 -1.353780
RightUpLeg -85.615880 -1.034464 -4.746796
RightLeg 38.644153 -0.000000 -0.000000
RightFoot -19.259342 -12.594303 19.561780
RightToeBase 11.967620 -0.000000 -0.000000
LeftUpLeg -89.088758 1.818274 6.441371
LeftLeg 42.336617 -0.000000 -0.000000
LeftFoot -15.783762 12.945197 -20.226634
LeftToeBase 6.314487 -0.000000 -0.000000
Spine 83.997960 -2.834171 -10.250970
RightShoulder -14.491888 -62.933439 -27.787221
RightArm -15.757348 -3.336747 84.208180
RightForeArm 8.375827 0.000000 4.972284
RightHand -13.112866 0.000000 43.997155
RightHandThumb1 -24.326973 -0.000000 -32.862282
LeftShoulder -98.297517 64.931598 -58.502825
LeftArm 9.059023 2.282508 -81.939851
LeftForeArm 36.493365 -0.000000 -4.024020
LeftHand -14.558507 -0.000000 -52.640481
LeftHandThumb1 -26.253704 0.000000 33.147579
Head 6.231696 18.712886 -3.138720
566
root 4.017717 34.717745 -2.172127 58.558011 -1.208106 -1.345379
RightUpLeg -85.599343 -1.046732 -4.746291
RightLeg 38.714092 -0.000000 -0.000000
RightFoot -19.313872 -12.597669 19.555703
RightToeBase 11.900721 -0.000000 -0.000000
LeftUpLeg -89.087681 1.804072 6.408571
LeftLeg 42.410377 -0.000000 -0.000000
LeftFoot -15.825240 12.923336 -20.228147
LeftToeBase 6.317021 -0.000000 -0.000000
Spine 83.959424 -2.852659 -10.252813
RightShoulder -14.540291 -62.895904 -27.731205
RightArm -15.719779 -3.333096 84.247929
RightForeArm 8.416996 -0.000000 5.003394
RightHand -13.101496 -0.000000 44.007849
RightHandThumb1 -24.326973 -0.000000 -32.862282
LeftShoulder -98.098071 64.918175 -58.266029
LeftArm 9.064333 2.328315 -82.000001
LeftForeArm 36.525490 -0.000000 -4.010754
LeftHand -14.520139 -0.000000 -52.737308
LeftHandThumb1 -26.253704 0.000000 33.147579
Head 6.222806 18.724217 -3.132966
567
root 4.016860 34.711346 -2.160376 58.525442 -1.188686 -1.353698
RightUpLeg -85.585576 -1.030521 -4.763669
RightLeg 38.796387 -0.000000 -0.000000
RightFoot -19.379738 -12.596434 19.599863
RightToeBase 11.921071 -0.000000 -0.000000
LeftUpLeg -89.083862 1.816398 6.375962
LeftLeg 42.490051 -0.000000 -0.000000
LeftFoot -15.863385 12.898286 -20.175028
LeftToeBase 6.344521 -0.000000 -0.000000
Spine 83.935217 -2.837264 -10.253647
RightShoulder -14.582051 -62.820150 -27.665342
RightArm -15.695700 -3.335086 84.279959
RightForeArm 8.455914 -0.000000 5.013270
RightHand -13.107646 -0.000000 44.041716
RightHandThumb1 -24.326973 -0.000000 -32.862282
LeftShoulder -97.913735 64.896824 -58.018531
LeftArm 9.084240 2.332693 -82.075071
LeftForeArm 36.535096 -0.000000 -4.018638
LeftHand -14.558998 -0.000000 -52.720884
LeftHandThumb1 -26.253704 0.000000 33.147579
Head 6.219462 18.725636 -3.051574
568
root 4.016088 34.704712 -2.148643 58.498441 -1.172164 -1.358386
RightUpLeg -85.578654 -1.022440 -4.768829
RightLeg 38.878829 -0.000000 -0.000000
RightFoot -19.432289 -12.609227 19.603190
RightToeBase 11.894169 -0.000000 -0.000000
LeftUpLeg -89.078211 1.822697 6.359106
LeftLeg 42.561283 -0.000000 -0.000000
LeftFoot -15.895900 12.843468 -20.196903
LeftToeBase 6.275532 -0.000000 -0.000000
Spine 83.923362 -2.835595 -10.258638
RightShoulder -14.640753 -62.710962 -27.607552
RightArm -15.703735 -3.376132 84.320347
RightForeArm 8.478051 0.000000 5.043997
RightHand -13.091405 0.000000 44.050062
RightHandThumb1 -24.326973 -0.000000 -32.862282
LeftShoulder -97.665745 64.866667 -57.735899
LeftArm 9.084532 2.343291 -82.135851
LeftForeArm 36.565967 -0.000000 -4.022787
LeftHand -14.544008 -0.000000 -52.711790
LeftHandThumb1 -26.253704 0.000000 33.147579
Head 6.166697 18.754425 -3.040626
